<svg xmlns="http://www.w3.org/2000/svg" width="1280" height="720" viewBox="0 0 1280 720">
  <defs>
    <radialGradient id="core" cx="50%" cy="52%" r="63%">
      <stop offset="0%" stop-color="#ffd27c"/>
      <stop offset="25%" stop-color="#d45d34"/>
      <stop offset="55%" stop-color="#531f25"/>
      <stop offset="100%" stop-color="#05070d"/>
    </radialGradient>
    <filter id="rough" x="-20%" y="-20%" width="140%" height="140%">
      <feTurbulence type="fractalNoise" baseFrequency="0.022" numOctaves="4" seed="19"/>
      <feDisplacementMap in="SourceGraphic" scale="9"/>
    </filter>
    <filter id="ember" x="-70%" y="-70%" width="240%" height="240%">
      <feGaussianBlur stdDeviation="9" result="blur"/>
      <feMerge><feMergeNode in="blur"/><feMergeNode in="SourceGraphic"/></feMerge>
    </filter>
    <filter id="grain" x="-10%" y="-10%" width="120%" height="120%">
      <feTurbulence type="fractalNoise" baseFrequency="0.9" numOctaves="4" seed="31"/>
      <feColorMatrix type="saturate" values="0"/>
      <feComponentTransfer><feFuncA type="table" tableValues="0 0.17"/></feComponentTransfer>
      <feBlend mode="overlay" in2="SourceGraphic"/>
    </filter>
  </defs>
  <rect width="1280" height="720" fill="#04060c"/>
  <ellipse cx="640" cy="386" rx="460" ry="238" fill="url(#core)" opacity="0.82"/>
  <g filter="url(#rough)">
    <path d="M243 397 C282 252 454 196 660 206 C881 217 1038 304 1052 407 C1068 527 901 600 669 604 C412 608 213 516 243 397 Z" fill="#161821"/>
    <path d="M318 386 C354 292 486 252 654 258 C830 264 967 329 984 407 C1006 500 875 554 688 562 C481 571 283 488 318 386 Z" fill="#2a2930" stroke="#9a8275" stroke-width="6"/>
  </g>
  <g fill="none" stroke="#ff7d35" stroke-width="9" stroke-linecap="round" filter="url(#ember)">
    <path d="M358 362 L458 386 L540 322 L638 397 L747 347 L884 380 L948 350"/>
    <path d="M496 504 L570 452 L649 502 L725 443 L820 494 L902 463"/>
    <path d="M592 221 L628 306 L717 258 L774 322"/>
    <path d="M384 445 L456 428 L520 458 L574 432"/>
  </g>
  <g fill="#4a4650" stroke="#c0aa9a" stroke-width="4">
    <path d="M336 305 L448 250 L522 318 L433 383 L353 362 Z"/>
    <path d="M790 264 L939 315 L866 407 L736 346 Z"/>
    <path d="M549 514 L706 542 L646 613 L506 588 Z"/>
    <path d="M435 419 L515 402 L565 442 L496 474 Z"/>
    <path d="M739 466 L828 446 L886 496 L795 530 Z"/>
  </g>
  <g stroke="#29262f" stroke-width="3" opacity="0.7">
    <path d="M376 319 L457 340 L490 304"/>
    <path d="M810 293 L866 352 L915 326"/>
    <path d="M566 548 L646 565 L683 538"/>
  </g>
  <g>
    <circle cx="640" cy="386" r="72" fill="#090612" stroke="#8e45ff" stroke-width="7"/>
    <circle cx="640" cy="386" r="116" fill="none" stroke="#8e45ff" stroke-width="3" opacity="0.45"/>
    <path d="M610 373 C634 343 676 356 682 395 C657 381 637 400 610 373 Z" fill="#2d1444"/>
    <circle cx="640" cy="386" r="20" fill="#d0a8ff" opacity="0.68"/>
  </g>
  <g fill="#ffb35c" stroke="#3a1410" stroke-width="3">
    <path d="M438 432 C462 416 490 435 484 463 C458 471 435 459 438 432 Z"/>
    <path d="M824 462 C848 447 876 465 870 492 C845 501 819 489 824 462 Z"/>
    <path d="M690 282 C716 269 742 289 734 315 C710 322 687 309 690 282 Z"/>
  </g>
  <g opacity="0.78" stroke="#b6653b" stroke-width="5" fill="none" stroke-linecap="round">
    <path d="M514 344 C552 362 586 340 620 316"/>
    <path d="M724 380 C767 365 804 376 844 401"/>
    <path d="M488 521 C538 496 580 512 627 536"/>
  </g>
  <rect width="1280" height="720" fill="#000" opacity="0.025" filter="url(#grain)"/>
  <text x="60" y="88" fill="#f4f1df" font-family="Segoe UI, Arial" font-size="38" font-weight="700">Brittle Core Labyrinth</text>
  <text x="60" y="132" fill="#dfc8bd" font-family="Segoe UI, Arial" font-size="20">Charcoal shell fragments, molten seams, violet gravity core, broken orbital rails.</text>
  <g transform="translate(876 82)">
    <rect width="330" height="92" rx="10" fill="#0c0713" opacity="0.78" stroke="#8e45ff"/>
    <text x="20" y="34" fill="#ffb35c" font-family="Segoe UI, Arial" font-size="18" font-weight="700">Gameplay Hook</text>
    <text x="20" y="62" fill="#f0ded4" font-family="Segoe UI, Arial" font-size="16">Gravity bends preview and enemy routes.</text>
  </g>
</svg>
